<?xml version="1.0" encoding="UTF-8" standalone="no"?>
<svg
   viewBox="0 0 500 500"
   overflow="hidden"
   version="1.1"
   id="svg1890"
   sodipodi:docname="aviation.svg"
   width="500"
   height="500"
   xmlns:inkscape="http://www.inkscape.org/namespaces/inkscape"
   xmlns:sodipodi="http://sodipodi.sourceforge.net/DTD/sodipodi-0.dtd"
   xmlns="http://www.w3.org/2000/svg"
   xmlns:svg="http://www.w3.org/2000/svg">
  <defs
     id="defs1894" />
  <sodipodi:namedview
     id="namedview1892"
     pagecolor="#505050"
     bordercolor="#eeeeee"
     borderopacity="1"
     inkscape:showpageshadow="0"
     inkscape:pageopacity="0"
     inkscape:pagecheckerboard="0"
     inkscape:deskcolor="#505050"
     showgrid="false" />
  <path
     d="m 185.849,432.138 h -1.592 c -8.667,-0.025 -15.689,-7.04 -15.721,-15.707 l 0.006,-29.679 46.813,-27.568 a 66.27,66.27 0 0 1 -1.35,-13.116 l -2.543,-62.65 -132.193,38.337 h -1.416 c -9.714,-0.011 -17.587,-7.882 -17.6,-17.596 v -44.382 l 147.677,-79.634 -2.28,-68.368 c 0,-26.42 20.565,-47.913 45.841,-47.913 25.28,0 45.843,21.492 45.843,47.913 l -0.007,0.332 -2.252,67.498 148.671,80.176 v 44.378 c -0.01,9.713 -7.88,17.585 -17.593,17.596 h -1.416 l -133.209,-38.633 -2.56,62.943 a 65.684,65.684 0 0 1 -1.241,12.581 l 47.737,28.106 -0.006,29.666 c -0.003,8.682 -7.043,15.719 -15.725,15.718 h -1.589 l -63.903,-20.885 h -4.499 z m 2.64,-33.981 -0.003,12.13 58.084,-18.989 h 10.853 l 58.091,18.986 0.003,-12.127 -51.431,-30.274 2.62,-7.691 a 44.34,44.34 0 0 0 2.311,-14.337 l 0.01,-0.406 3.602,-88.574 151.164,43.837 v -29.021 l -149.074,-80.398 2.664,-79.674 c -0.077,-15.348 -11.664,-27.808 -25.892,-27.808 -14.228,0 -25.815,12.463 -25.891,27.808 l 2.683,80.215 -148.08,79.853 v 29.024 l 150.158,-43.547 3.598,88.68 a 44.36,44.36 0 0 0 2.447,14.754 l 2.722,7.743 z"
     id="path1888"
     inkscape:export-filename="path1888.svg"
     inkscape:export-xdpi="96"
     inkscape:export-ydpi="96" />
</svg>
