<?xml version="1.0" encoding="UTF-8" standalone="no"?>
<svg
   version="1.1"
   width="150"
   height="150"
   id="Layer_1"
   overflow="hidden"
   xmlns="http://www.w3.org/2000/svg"
   xmlns:svg="http://www.w3.org/2000/svg">
  <defs
     id="defs2201" />
  <style
     id="style2174" />
  <path
     d="m 44.988953,139.12996 h -4.592 c -5.444,0 -9.873,-4.392 -9.873,-9.79 v -6.549 h 4 v 6.549 c 0,3.192 2.635,5.79 5.873,5.79 h 4.592 c 3.238,0 5.873,-2.598 5.873,-5.79 l 4,-0.056 v 0.056 c -10e-4,5.398 -4.429,9.79 -9.873,9.79 z m 68.234997,0 h -4.594 c -5.445,0 -9.872997,-4.392 -9.872997,-9.79 v -6.981 h 3.999997 v 6.981 c 0,3.192 2.635,5.79 5.873,5.79 h 4.594 c 3.238,0 5.873,-2.598 5.873,-5.79 h 4 l -0.033,0.81 c -0.418,5.021 -4.672,8.98 -9.84,8.98 z m 14.793,-36.25 h -4 V 20.920959 c 0,-3.193 -2.635,-5.791 -5.873,-5.791 H 35.476953 c -3.238,0 -5.873,2.598 -5.873,5.791 v 81.095001 h -4 V 20.920959 c -0.001,-5.399 4.429,-9.791 9.873,-9.791 h 82.666997 c 5.443,0 9.873,4.392 9.873,9.791 z"
     stroke="#000000"
     stroke-dashoffset="1"
     fill="#282D33"
     id="path2176"
     style="fill:#000000" />
  <path
     d="M 128.01695,124.19796 H 25.601953 v -9.63 h 4 v 5.63 h 94.414997 v -6.063 h 4 z m 0,-35.057001 H 25.601953 v -51.393 H 128.01695 Z m -98.414997,-4 h 94.414997 v -43.393 H 29.601953 Z m 7.187,-57.892 h 80.042997 v 4 H 36.788953 Z"
     stroke="#000000"
     stroke-dashoffset="1"
     fill="#282D33"
     id="path2178"
     style="fill:#000000" />
  <path
     d="M 129.98595,115.10896 H 23.634953 v -14 H 129.98595 Z m -102.350997,-4 h 98.350997 v -6 H 27.634953 Z m 47.175,-72.010001 h 4 v 48.042 h -4 z m 64.032997,27.916 h -4 v -15.529 h -9.808 v -4 h 13.808 z m -120.065997,0 h -4 v -19.529 h 13.81 v 4 h -9.81 z m 46.184,-12.984 h 4 v 25.968 h -4 z"
     stroke="#000000"
     stroke-dashoffset="1"
     fill="#282D33"
     id="path2180"
     style="fill:#000000" />
  <path
     stroke="#000000"
     stroke-dashoffset="1"
     fill="#282D33"
     d="m 65.553863,66.892297 2.813182,2.843591 -18.372439,18.175968 -2.813182,-2.843591 z"
     id="path2182"
     style="fill:#000000" />
  <g
     id="g2188"
     style="fill:#000000"
     transform="translate(12.809953,11.129959)">
    <path
       stroke="#000000"
       stroke-dashoffset="1"
       fill="#282D33"
       d="m 72.271,42.901 h 4 v 25.968 h -4 z"
       id="path2184"
       style="fill:#000000" />
    <path
       stroke="#000000"
       stroke-dashoffset="1"
       fill="#282D33"
       transform="rotate(44.7,83.454,66.267)"
       d="M 70.535,64.272 H 96.38 v 4 H 70.535 Z"
       id="path2186"
       style="fill:#000000" />
  </g>
  <g
     id="g2192"
     style="fill:#000000"
     transform="translate(12.809953,11.129959)">
    <path
       stroke="#000000"
       stroke-dashoffset="1"
       fill="#282D33"
       d="m 20.639,81.961 h 9.622 v 4 h -9.622 z"
       id="path2190"
       style="fill:#000000" />
  </g>
  <g
     id="g2196"
     style="fill:#000000"
     transform="translate(12.809953,11.129959)">
    <path
       stroke="#000000"
       stroke-dashoffset="1"
       fill="#282D33"
       d="m 96.309,81.961 h 9.623 v 4 h -9.623 z"
       id="path2194"
       style="fill:#000000" />
  </g>
</svg>
