<?xml version="1.0" encoding="UTF-8" standalone="no"?>
<svg
   version="1.0"
   width="500.00003pt"
   height="500.00003pt"
   viewBox="0 0 500.00003 500.00003"
   preserveAspectRatio="xMidYMid"
   id="svg6036"
   xmlns="http://www.w3.org/2000/svg"
   xmlns:svg="http://www.w3.org/2000/svg">
  <defs
     id="defs6040" />
  <g
     transform="matrix(0.1,0,0,-0.1,7.6,409.8)"
     fill="#000000"
     stroke="none"
     id="g6034">
    <path
       d="M 1306,2779 C 1156,2759 994,2680 882,2571 740,2433 713,2375 580,1911 520,1701 468,1526 465,1520 c -3,-5 -16,-10 -29,-10 -45,0 -117,-33 -165,-76 -67,-60 -92,-122 -98,-243 -10,-176 25,-294 111,-381 89,-91 178,-120 362,-120 h 123 l 16,-57 c 79,-271 337,-451 617,-430 352,27 607,363 535,704 -46,212 -207,385 -422,449 -71,21 -237,24 -305,5 -102,-29 -189,-80 -268,-159 C 858,1118 812,1041 784,942 L 767,880 H 640 c -149,0 -195,16 -245,88 -29,42 -30,49 -33,160 -4,165 11,185 149,207 42,6 111,62 127,102 6,15 59,197 118,403 66,231 119,400 139,440 62,122 184,232 309,279 70,26 158,42 148,27 -4,-6 -29,-44 -55,-84 -93,-139 -155,-311 -172,-474 -8,-78 10,-128 51,-147 18,-8 227,-11 740,-11 h 716 l 29,29 c 47,48 38,116 -21,146 -25,13 -118,15 -675,15 h -646 l 7,38 c 26,142 127,327 251,460 l 40,42 h 696 c 616,0 702,-2 744,-16 104,-36 173,-107 209,-218 38,-117 112,-261 144,-281 31,-19 -15,-24 -249,-27 -256,-3 -260,-3 -284,-26 -14,-13 -28,-35 -31,-48 -9,-33 19,-88 50,-103 17,-7 139,-11 391,-11 h 366 l 62,-25 c 104,-41 174,-55 321,-64 122,-8 147,-12 192,-35 76,-38 127,-89 162,-159 l 31,-62 -82,-5 c -73,-5 -84,-9 -105,-33 -34,-39 -33,-95 2,-128 24,-22 35,-24 152,-29 l 127,-5 3,-135 c 3,-149 -5,-193 -45,-241 -47,-55 -92,-69 -233,-69 h -126 l -17,68 c -52,201 -239,372 -457,418 -292,61 -594,-129 -676,-425 l -17,-61 h -407 -407 l -26,-24 c -52,-49 -42,-116 23,-148 32,-16 76,-18 478,-18 396,0 447,2 472,17 33,19 50,51 50,96 0,89 48,194 121,267 215,216 581,120 665,-174 68,-241 -108,-490 -357,-504 -82,-5 -166,13 -229,50 -19,11 -67,54 -106,94 -63,66 -75,74 -108,74 -42,0 -81,-32 -91,-73 -21,-82 150,-246 316,-304 212,-74 440,-20 602,141 80,80 126,157 153,254 l 17,62 h 118 c 189,0 275,27 363,116 93,93 116,172 116,401 0,138 -2,162 -21,200 -11,24 -32,52 -46,63 -17,13 -29,38 -39,79 -47,205 -209,363 -413,407 -36,7 -105,14 -152,14 -165,0 -320,62 -430,172 -70,70 -110,135 -154,253 -51,137 -69,170 -127,231 -62,65 -123,105 -208,136 l -65,23 -840,1 c -462,1 -871,-2 -909,-7 z m 149,-1603 c 136,-36 240,-132 284,-263 70,-208 -50,-439 -262,-504 -234,-72 -474,74 -518,315 -51,277 221,526 496,452 z"
       id="path6032" />
  </g>
</svg>
