<?xml version="1.0" standalone="no"?>
<!DOCTYPE svg PUBLIC "-//W3C//DTD SVG 20010904//EN"
 "http://www.w3.org/TR/2001/REC-SVG-20010904/DTD/svg10.dtd">
<svg version="1.0" xmlns="http://www.w3.org/2000/svg"
 width="446.000000pt" height="501.000000pt" viewBox="0 0 446.000000 501.000000"
 preserveAspectRatio="xMidYMid meet">

<g transform="translate(0.000000,501.000000) scale(0.100000,-0.100000)"
fill="#000000" stroke="none">
<path d="M1196 4674 c-90 -22 -193 -81 -267 -154 -75 -74 -110 -129 -148 -233
l-26 -72 -3 -998 c-2 -662 1 -1018 8 -1055 31 -168 172 -302 334 -319 31 -3
59 -10 62 -14 3 -5 -21 -63 -52 -129 l-57 -120 -91 0 c-150 0 -199 -26 -199
-105 0 -70 51 -105 155 -105 l46 0 -58 -127 -57 -128 -89 -6 c-102 -7 -117
-11 -138 -44 -42 -65 2 -151 82 -162 23 -3 42 -10 42 -15 0 -5 -31 -82 -70
-169 -38 -88 -70 -174 -70 -190 0 -21 10 -41 30 -61 27 -27 36 -30 72 -25 24
3 50 15 63 29 13 13 65 116 116 231 l92 207 1281 0 1281 0 65 -147 c113 -261
129 -292 160 -308 36 -19 63 -19 99 -1 28 15 51 53 51 87 0 11 -33 94 -74 185
-48 105 -71 166 -63 168 7 2 31 9 54 15 82 22 109 102 54 163 -28 31 -32 33
-122 38 l-94 5 -56 125 -56 125 69 7 c58 5 75 11 99 34 42 40 41 99 -1 139
-29 28 -36 30 -146 35 l-115 5 -55 119 c-37 82 -51 122 -43 126 6 4 34 10 62
14 117 13 241 107 295 224 l27 57 3 1030 c1 697 -1 1047 -8 1081 -15 72 -69
179 -123 246 -55 67 -169 146 -258 179 -64 23 -65 24 -600 27 l-537 3 -30 -25
c-36 -31 -45 -70 -27 -113 25 -59 14 -58 580 -63 l520 -5 65 -32 c73 -36 131
-91 184 -175 l37 -58 -1296 0 -1296 0 23 41 c43 77 125 156 196 191 l66 33
214 5 214 5 29 33 c40 44 40 93 0 133 l-29 29 -209 -1 c-143 0 -226 -5 -267
-15z m2354 -1574 c0 -898 0 -922 -20 -960 -24 -47 -62 -75 -121 -90 -31 -8
-381 -10 -1184 -8 -1231 3 -1157 0 -1218 56 -50 47 -57 97 -57 404 l0 278
1061 0 1061 0 29 29 c32 32 38 71 17 116 -26 57 24 55 -1118 55 l-1050 0 0
520 0 520 1300 0 1300 0 0 -920z m-368 -1390 l56 -130 -984 0 -984 0 14 33 c7
17 33 76 57 130 l42 97 871 0 871 0 57 -130z m208 -470 l57 -125 -593 -3
c-326 -1 -862 -1 -1192 0 l-600 3 56 128 57 127 1079 -2 1080 -3 56 -125z"/>
<path d="M1409 2481 c-62 -62 -16 -171 72 -171 50 0 99 49 99 100 0 87 -109
132 -171 71z"/>
<path d="M2969 2481 c-62 -62 -16 -171 72 -171 50 0 99 49 99 100 0 87 -109
132 -171 71z"/>
</g>
</svg>
