<?xml version="1.0" encoding="UTF-8" standalone="no"?>
<svg
   version="1.0"
   width="500.00003pt"
   height="500.00003pt"
   viewBox="0 0 500.00003 500.00003"
   preserveAspectRatio="xMidYMid"
   id="svg5730"
   xmlns="http://www.w3.org/2000/svg"
   xmlns:svg="http://www.w3.org/2000/svg">
  <defs
     id="defs5734" />
  <g
     transform="matrix(0.1,0,0,-0.1,1.7793388,424.8843)"
     fill="#000000"
     stroke="none"
     id="g5728">
    <path
       d="m 540,3443 c -44,-24 -59,-39 -83,-83 l -28,-54 5,-305 c 3,-168 5,-326 4,-351 -2,-59 -2,-622 0,-680 1,-25 -1,-172 -4,-327 l -5,-283 H 214 C 13,1360 -1,1359 4,1343 7,1333 78,1091 160,805 257,471 322,265 342,227 383,150 482,59 557,28 L 615,5 h 1865 1865 l 58,23 c 85,35 178,125 222,216 21,44 89,261 180,576 80,278 148,513 151,523 5,16 -35,17 -750,17 h -756 v 274 c 0,170 -4,285 -11,303 -14,38 -56,81 -101,104 -34,17 -61,19 -313,19 h -275 v 263 c 0,161 -4,277 -11,302 -7,23 -28,57 -53,81 -57,58 -96,64 -396,64 h -250 v 275 c 0,306 -2,318 -63,372 -59,52 -82,55 -412,49 -370,-6 -295,-6 -660,0 l -311,5 z m 590,-428 V 2770 H 885 640 v 245 245 h 245 245 z m 710,0 v -245 h -250 -250 v 245 245 h 250 250 z m -702,-702 -3,-248 -247,-3 -248,-2 v 250 250 h 250 250 z m 702,-3 v -250 h -250 -250 v 250 250 h 250 250 z m 700,0 v -250 l -247,2 -248,3 -3,248 -2,247 h 250 250 z m -700,-700 v -250 h -250 -250 v 250 250 h 250 250 z m 700,0 v -250 h -250 -250 v 243 c 0,134 3,247 7,250 3,4 116,7 250,7 h 243 z m 710,0 v -250 h -250 -250 v 250 250 h 250 250 z m -2120,-5 V 1360 H 885 640 v 245 245 h 245 245 z M 4579,773 C 4519,565 4465,382 4460,365 4442,313 4398,260 4351,232 l -46,-27 H 2480 c -1693,0 -1827,1 -1856,17 -38,21 -101,90 -115,126 -6,15 -62,201 -123,415 l -113,387 h 2207 2207 z"
       id="path5704" />
    <path
       d="m 780,977 c -43,-15 -75,-71 -65,-117 10,-44 58,-80 107,-80 111,0 137,152 32,196 -18,8 -35,14 -36,13 -2,0 -19,-5 -38,-12 z"
       id="path5706" />
    <path
       d="m 1130,979 c -39,-16 -59,-39 -66,-76 -16,-88 66,-150 150,-112 25,12 56,63 56,94 0,32 -32,77 -65,91 -39,16 -41,16 -75,3 z"
       id="path5708" />
    <path
       d="m 1485,983 c -11,-3 -32,-17 -47,-31 -40,-37 -40,-102 1,-143 64,-64 171,-20 171,70 0,66 -62,118 -125,104 z"
       id="path5710" />
    <path
       d="m 1822,979 c -74,-22 -92,-118 -32,-171 51,-47 125,-36 155,22 32,61 11,120 -51,146 -18,8 -35,14 -36,13 -2,0 -18,-5 -36,-10 z"
       id="path5712" />
    <path
       d="m 2164,975 c -103,-43 -76,-195 34,-195 47,0 96,35 106,76 20,80 -64,152 -140,119 z"
       id="path5714" />
    <path
       d="m 2524,983 c -27,-5 -72,-52 -74,-78 -5,-47 2,-68 29,-96 64,-64 171,-20 171,70 0,67 -60,116 -126,104 z"
       id="path5716" />
    <path
       d="m 2853,975 c -52,-22 -77,-89 -52,-138 49,-95 199,-62 199,43 0,37 -30,81 -65,96 -41,17 -42,17 -82,-1 z"
       id="path5718" />
    <path
       d="m 3204,976 c -102,-45 -76,-196 34,-196 49,0 86,28 102,75 26,79 -59,154 -136,121 z"
       id="path5720" />
    <path
       d="m 3550,977 c -43,-15 -75,-71 -65,-117 10,-44 58,-80 107,-80 111,0 137,152 32,196 -18,8 -35,14 -36,13 -2,0 -19,-5 -38,-12 z"
       id="path5722" />
    <path
       d="m 3894,975 c -60,-25 -80,-85 -49,-145 29,-57 102,-68 153,-25 91,76 4,217 -104,170 z"
       id="path5724" />
    <path
       d="m 4253,983 c -12,-2 -34,-18 -48,-34 -58,-69 -13,-169 75,-169 33,0 48,6 71,29 72,72 4,192 -98,174 z"
       id="path5726" />
  </g>
</svg>
