<?xml version="1.0" encoding="UTF-8" standalone="no"?>
<svg
   version="1.0"
   width="700pt"
   height="700pt"
   viewBox="0 0 700 700"
   preserveAspectRatio="xMidYMid"
   id="svg5274"
   xmlns="http://www.w3.org/2000/svg"
   xmlns:svg="http://www.w3.org/2000/svg">
  <defs
     id="defs5278" />
  <g
     transform="matrix(0.1,0,0,-0.1,3.5707657,615.36195)"
     fill="#000000"
     stroke="none"
     id="g5272">
    <path
       d="M 520,4676 C 405,4650 318,4581 267,4472 l -32,-67 V 2935 1465 l 31,-65 c 38,-79 101,-145 172,-177 59,-28 176,-47 239,-40 22,2 45,2 50,-2 5,-3 15,-47 21,-97 20,-166 72,-273 188,-384 118,-112 256,-166 421,-163 311,4 573,253 591,560 l 5,83 1408,2 1409,3 v -38 c 0,-135 65,-311 152,-411 57,-67 173,-140 272,-173 163,-54 358,-28 507,68 167,108 278,307 279,499 v 55 h 223 c 236,0 277,6 370,52 60,30 128,97 158,155 46,90 49,119 49,553 0,508 -3,527 -119,648 -86,91 -171,117 -378,117 h -124 l -374,565 c -276,415 -383,569 -404,580 -26,13 -95,15 -470,15 h -440 l -3,273 c -3,272 -3,272 -30,329 -51,109 -157,189 -275,208 -93,16 -3574,11 -3643,-4 z m 3651,-292 24,-26 V 2933 1508 l -28,-24 -28,-24 H 3002 1864 l -36,48 c -166,223 -493,301 -743,178 -80,-40 -160,-105 -217,-177 l -40,-49 H 694 c -130,0 -136,1 -159,25 l -25,24 v 1426 1426 l 25,24 24,25 H 2353 4147 Z M 5520,3183 c 151,-229 283,-429 293,-445 l 19,-28 h -681 -681 v 445 445 h 388 l 387,-1 z m 932,-766 c 33,-23 58,-74 58,-121 v -36 h -247 c -216,0 -252,-2 -282,-18 -102,-51 -105,-184 -6,-239 38,-22 50,-23 288,-23 h 248 l -3,-217 c -3,-237 -5,-245 -62,-279 -28,-17 -60,-20 -291,-24 l -260,-5 -33,47 c -67,97 -222,199 -349,228 -28,6 -93,12 -145,13 -76,0 -108,-4 -175,-27 -112,-37 -223,-112 -288,-196 l -50,-65 -198,3 c -176,2 -198,4 -193,18 3,9 6,229 6,490 v 474 l 978,-2 c 923,-3 978,-4 1004,-21 z M 1487,1442 c 223,-115 255,-409 62,-562 -65,-51 -141,-74 -228,-68 -120,9 -212,72 -267,183 -35,71 -36,77 -32,157 6,104 30,162 97,227 72,70 133,92 241,88 63,-3 96,-9 127,-25 z m 4041,-7 c 198,-108 238,-373 78,-528 -72,-71 -125,-92 -231,-92 -74,0 -98,4 -138,23 -62,31 -127,96 -157,157 -22,43 -25,64 -25,150 0,119 13,153 91,231 73,72 133,95 244,91 71,-2 94,-8 138,-32 z"
       id="path5270" />
  </g>
</svg>
